<svg xmlns="http://www.w3.org/2000/svg" width="38" height="38" viewBox="0 0 38 38"><g transform="translate(-766 -454)"><g transform="translate(766 454)"><circle cx="19" cy="19" r="19" fill="#567ac8"/></g><g transform="translate(774.557 460.992)" fill="#fca311"><path d="M 10.00751209259033 20.80632019042969 C 7.118930816650391 18.88095855712891 4.795099258422852 16.86711311340332 3.097456216812134 14.81752109527588 C 1.004636287689209 12.2908411026001 -0.056513711810112 9.784920692443848 -0.056513711810112 7.369380950927734 C -0.056513711810112 6.024350643157959 0.4284763038158417 4.780460834503174 1.309126257896423 3.866850852966309 C 2.141776323318481 3.003020763397217 3.275636196136475 2.507600784301758 4.419966220855713 2.507600784301758 C 6.525976181030273 2.507600784301758 8.391546249389648 4.089080810546875 9.538326263427734 6.846540927886963 L 10.03080654144287 8.03071117401123 L 10.4697961807251 6.825690746307373 C 10.97865581512451 5.428860664367676 11.69185638427734 4.365780830383301 12.58957672119141 3.665970802307129 C 13.35953617095947 3.065760850906372 14.26633644104004 2.748500823974609 15.21195602416992 2.748500823974609 C 16.4602165222168 2.748500823974609 17.72829627990723 3.294310808181763 18.6910457611084 4.245980739593506 C 19.70210647583008 5.245380878448486 20.2589168548584 6.560990810394287 20.2589168548584 7.950440883636475 C 20.2589168548584 10.3881311416626 19.24090576171875 12.72102069854736 17.14669609069824 15.08242034912109 C 15.48678779602051 16.95412635803223 13.14939594268799 18.82840919494629 10.00751209259033 20.80632019042969 Z" stroke="none"/><path d="M 4.419956207275391 3.007600784301758 C 3.410676956176758 3.007600784301758 2.408037185668945 3.447259902954102 1.669105529785156 4.213850021362305 C 0.8787460327148438 5.033790588378906 0.4434757232666016 6.154450416564941 0.4434757232666016 7.369380950927734 C 0.4434757232666016 9.665360450744629 1.46595573425293 12.0639705657959 3.482517242431641 14.49858093261719 C 5.096288681030273 16.44690704345703 7.29234790802002 18.36627388000488 10.01553058624268 20.20940017700195 C 12.97869777679443 18.32124710083008 15.19279670715332 16.53205680847168 16.77261734008789 14.75067138671875 C 18.78207588195801 12.48480033874512 19.7589054107666 10.26043128967285 19.7589054107666 7.950440406799316 C 19.7589054107666 6.695620536804199 19.25482559204102 5.506270408630371 18.33953666687012 4.601500511169434 C 17.4696159362793 3.74159049987793 16.32967567443848 3.248441696166992 15.21200561523438 3.248500823974609 C 13.33741569519043 3.248611450195313 11.82011604309082 4.579800605773926 10.9395866394043 6.996830940246582 L 10.06161594390869 9.406880378723145 L 9.076665878295898 7.038540840148926 C 8.011286735534668 4.476820945739746 6.313985824584961 3.007600784301758 4.419956207275391 3.007600784301758 M 4.419960975646973 2.007596969604492 C 6.443313598632813 2.007596969604492 8.623821258544922 3.345502853393555 9.999996185302734 6.654541015625 C 11.14622020721436 3.508157730102539 13.20227241516113 2.248617172241211 15.21194839477539 2.248504638671875 C 18.03092002868652 2.248348236083984 20.7589054107666 4.726194381713867 20.7589054107666 7.950440406799316 C 20.7589054107666 13.47329139709473 15.71020698547363 17.84741020202637 9.999996185302734 21.40088081359863 C 4.641726493835449 17.881591796875 -0.5565242767333984 12.89223098754883 -0.5565242767333984 7.369380950927734 C -0.5565242767333984 4.253007888793945 1.799720764160156 2.007596969604492 4.419960975646973 2.007596969604492 Z" stroke="none" fill="#fff"/></g></g></svg>