<svg xmlns="http://www.w3.org/2000/svg" width="30.331" height="30.331" viewBox="0 0 30.331 30.331"><g transform="translate(-385 116)"><g transform="translate(385 -116)"><path d="M0,0H30.331V30.331H0Z" fill="rgba(0,0,0,0)" fill-rule="evenodd"/><path d="M14.9,9.846A5.055,5.055,0,1,0,19.957,14.9,5.054,5.054,0,0,0,14.9,9.846Zm11.3,3.791A11.367,11.367,0,0,0,16.165,3.6V2.264a1.264,1.264,0,0,0-2.528,0V3.6A11.367,11.367,0,0,0,3.6,13.638H2.264a1.264,1.264,0,1,0,0,2.528H3.6A11.367,11.367,0,0,0,13.638,26.2v1.34a1.264,1.264,0,1,0,2.528,0V26.2A11.367,11.367,0,0,0,26.2,16.165h1.34a1.264,1.264,0,1,0,0-2.528ZM14.9,23.748A8.846,8.846,0,1,1,23.748,14.9,8.84,8.84,0,0,1,14.9,23.748Z" transform="translate(0.264 0.264)" fill="#fca311" fill-rule="evenodd"/></g></g></svg>