<svg xmlns="http://www.w3.org/2000/svg" width="180" height="61.379" viewBox="0 0 180 61.379">
  <g id="logo_big" transform="translate(-157 -31)">
    <g id="Group_27" data-name="Group 27">
      <g id="Group_11" data-name="Group 11" transform="translate(-671 -96)">
        <g id="Group_3" data-name="Group 3" transform="translate(830 126)">
          <text id="Selltor" transform="translate(54 47)" fill="#fff" font-size="38" font-family="OpenSans-Bold, Open Sans" font-weight="700"><tspan x="0" y="0">Sell</tspan><tspan y="0" fill="#567ac8">tor</tspan></text>
          <path id="Exclusion_1" data-name="Exclusion 1" d="M13.559,62.379a4.242,4.242,0,0,1-4.237-4.237V38.152h0A19.531,19.531,0,0,1,3.647,6.694a19.166,19.166,0,0,1,27.265,0A19.394,19.394,0,0,1,36.559,20.44a19.575,19.575,0,0,1-2.449,9.489L48.752,45.761a3.442,3.442,0,0,1-.167,4.831l-1.239,1.166a3.37,3.37,0,0,1-4.791-.169L28.421,36.306a19.589,19.589,0,0,0,5.688-6.378l-16.278-17.6a3.38,3.38,0,0,0-.741-.6,4.237,4.237,0,0,0-7.769,2.341V38.152a18.99,18.99,0,0,0,7.957,1.728c.171,0,.345,0,.517-.007V58.142A4.242,4.242,0,0,1,13.559,62.379ZM17.8,39.873h0V24.818L28.421,36.306A19.065,19.065,0,0,1,17.8,39.873Z" transform="translate(0 0)" fill="#fff"/>
        </g>
      </g>
    </g>
    <path id="Subtraction_1" data-name="Subtraction 1" d="M-216.2-3508.127h0v-15.054l10.625,11.489a19.065,19.065,0,0,1-10.624,3.567Zm-8.474-1.721h0a19.353,19.353,0,0,1-8.164-7.048A19.474,19.474,0,0,1-236-3527.56a19.4,19.4,0,0,1,5.647-13.746A19.074,19.074,0,0,1-216.72-3547a19.073,19.073,0,0,1,13.632,5.694,19.4,19.4,0,0,1,5.647,13.746,19.578,19.578,0,0,1-2.449,9.489l-16.279-17.6a3.428,3.428,0,0,0-.74-.6,4.235,4.235,0,0,0-3.533-1.9,4.242,4.242,0,0,0-4.237,4.238v24.086Z" transform="translate(392.999 3578)" fill="#567ac8"/>
  </g>
</svg>
