<svg xmlns="http://www.w3.org/2000/svg" width="16.602" height="8.939" viewBox="0 0 16.602 8.939">
  <g id="password_toggle_1" data-name="password toggle 1" transform="translate(70 -24)">
    <g id="icon-22-eye" transform="translate(-70 24)">
      <path id="eye" d="M12.3,9A9.809,9.809,0,0,0,4,13.47a9.809,9.809,0,0,0,8.3,4.47,9.809,9.809,0,0,0,8.3-4.47A9.809,9.809,0,0,0,12.3,9Zm0,7.024A2.554,2.554,0,1,0,9.747,13.47,2.554,2.554,0,0,0,12.3,16.024Zm0-.639a1.916,1.916,0,1,0-1.916-1.916A1.916,1.916,0,0,0,12.3,15.385Zm0-1.277a.639.639,0,1,0-.639-.639.639.639,0,0,0,.639.639Z" transform="translate(-4 -9)" fill="#567ac8" fill-rule="evenodd"/>
    </g>
  </g>
</svg>
