<svg xmlns="http://www.w3.org/2000/svg" width="16.429" height="11.374" viewBox="0 0 16.429 11.374">
  <g id="password_toogle_2" data-name="password toogle 2" transform="translate(-3 -7)">
    <g id="icon-21-eye-hidden" transform="translate(3 7)">
      <path id="eye-hidden" d="M6.228,15.778A9.543,9.543,0,0,1,3,12.687a9.707,9.707,0,0,1,8.215-4.423,10.157,10.157,0,0,1,2.276.252l-1.708,1.708a2.53,2.53,0,0,0-3.031,3.031L6.228,15.778Zm2.711,1.081a10.157,10.157,0,0,0,2.276.252,9.707,9.707,0,0,0,8.215-4.423A9.542,9.542,0,0,0,16.2,9.6l-2.523,2.523a2.53,2.53,0,0,1-3.031,3.031L8.939,16.858Zm4.171-4.171a1.9,1.9,0,0,1-1.9,1.9l1.9-1.9Zm-1.9-1.9a1.9,1.9,0,0,0-1.9,1.9l1.9-1.9ZM16.27,7,5.528,17.742l.632.632L16.9,7.632,16.27,7Z" transform="translate(-3 -7)" fill="#707070" fill-rule="evenodd"/>
    </g>
  </g>
</svg>
