<svg id="phone_icon" xmlns="http://www.w3.org/2000/svg" width="19.041" height="19.041" viewBox="0 0 19.041 19.041">
  <path id="Path_18" data-name="Path 18" d="M20.435,25.506,16.1,22.719a.773.773,0,0,0-1.1.188c-.315.466-1,1.433-1.121,1.61-.226.094-2,.693-4.971-2.275-.027-.027-.05-.053-.074-.078l-.064-.068L8.7,22.033c-.025-.024-.051-.048-.078-.074-2.97-2.97-2.369-4.748-2.275-4.971.176-.124,1.144-.806,1.61-1.121a.772.772,0,0,0,.192-1.092L5.357,10.427a.669.669,0,0,0-.068-.079.7.7,0,0,0-.965-.019A16.6,16.6,0,0,0,2.115,12.72a4.639,4.639,0,0,0-.195,3.442,19.616,19.616,0,0,0,4.737,7.689c.034.034.068.066.1.1.057.052.107.1.154.154.032.034.063.069.1.1A19.615,19.615,0,0,0,14.7,28.943a4.639,4.639,0,0,0,3.442-.195,16.607,16.607,0,0,0,2.391-2.209.7.7,0,0,0-.1-1.033Z" transform="translate(-1.678 -10.144)" fill="#fca311"/>
</svg>
