<svg id="review_icon_big" xmlns="http://www.w3.org/2000/svg" width="96.949" height="82.475" viewBox="0 0 96.949 82.475">
  <path id="Path_28" data-name="Path 28" d="M86.61,98.313a3.516,3.516,0,0,0-.677-.106c-1.525-.119-3.05-.25-4.578-.33a.623.623,0,0,1-.639-.481c-.608-1.558-1.232-3.11-1.853-4.662a1.177,1.177,0,0,0-1.152-.808,1.254,1.254,0,0,0-1.2.758c-.064.127-.112.263-.166.4-.593,1.441-1.188,2.882-1.776,4.325-.086.212-.168.358-.444.374-1.742.1-3.483.224-5.225.338a1.237,1.237,0,0,0-1.154,1.169,1.623,1.623,0,0,0,.789,1.39c1.186.995,2.365,2,3.551,2.991a.469.469,0,0,1,.172.555c-.438,1.67-.855,3.346-1.275,5.021a1.23,1.23,0,0,0,.891,1.532,1.563,1.563,0,0,0,1.223-.266c1.335-.836,2.683-1.652,4.011-2.5a.631.631,0,0,1,.8-.007c1.382.9,2.781,1.765,4.176,2.641a1.283,1.283,0,0,0,2-1.424c-.38-1.538-.741-3.081-1.143-4.613a.786.786,0,0,1,.307-.947c1.263-1.013,2.5-2.06,3.748-3.091A1.131,1.131,0,0,0,87.5,99.6,1.253,1.253,0,0,0,86.61,98.313Z" transform="translate(-16.289 -28.432)" fill="#fca311"/>
  <path id="Path_29" data-name="Path 29" d="M54.326,98.313a3.515,3.515,0,0,0-.678-.106c-1.525-.119-3.05-.25-4.578-.33a.623.623,0,0,1-.639-.481c-.608-1.558-1.231-3.11-1.853-4.662a1.177,1.177,0,0,0-1.152-.808,1.254,1.254,0,0,0-1.2.758c-.064.127-.112.263-.166.4-.593,1.441-1.188,2.882-1.776,4.325-.086.212-.168.358-.444.374-1.742.1-3.483.224-5.225.338a1.237,1.237,0,0,0-1.154,1.169,1.623,1.623,0,0,0,.789,1.39c1.185.995,2.365,2,3.551,2.991a.469.469,0,0,1,.172.555c-.438,1.67-.855,3.346-1.275,5.021a1.23,1.23,0,0,0,.89,1.532,1.563,1.563,0,0,0,1.223-.266c1.335-.836,2.683-1.652,4.011-2.5a.631.631,0,0,1,.8-.007c1.382.9,2.781,1.765,4.176,2.641a1.283,1.283,0,0,0,2-1.424c-.38-1.538-.741-3.081-1.143-4.613a.786.786,0,0,1,.307-.947c1.263-1.013,2.5-2.06,3.748-3.091a1.131,1.131,0,0,0,.508-.962,1.253,1.253,0,0,0-.894-1.291Z" transform="translate(-9.736 -28.432)" fill="#fca311"/>
  <path id="Path_30" data-name="Path 30" d="M22.042,98.313a3.517,3.517,0,0,0-.678-.106c-1.525-.119-3.05-.25-4.577-.33a.623.623,0,0,1-.639-.481c-.608-1.558-1.231-3.11-1.852-4.662a1.177,1.177,0,0,0-1.152-.808,1.254,1.254,0,0,0-1.2.758c-.064.127-.112.263-.166.4C11.188,94.52,10.592,95.96,10,97.4c-.086.212-.168.358-.444.374-1.742.1-3.483.224-5.225.338a1.237,1.237,0,0,0-1.154,1.169,1.623,1.623,0,0,0,.789,1.39c1.185.995,2.365,2,3.551,2.991a.469.469,0,0,1,.172.555c-.438,1.67-.855,3.346-1.275,5.021a1.23,1.23,0,0,0,.89,1.532,1.563,1.563,0,0,0,1.223-.266c1.335-.836,2.683-1.652,4.011-2.5a.631.631,0,0,1,.8-.007c1.382.9,2.781,1.765,4.176,2.641a1.283,1.283,0,0,0,2-1.424c-.38-1.538-.741-3.081-1.143-4.613a.786.786,0,0,1,.307-.947c1.263-1.013,2.5-2.06,3.748-3.091a1.131,1.131,0,0,0,.508-.962,1.253,1.253,0,0,0-.894-1.291Z" transform="translate(-3.182 -28.432)" fill="#fca311"/>
  <path id="Path_31" data-name="Path 31" d="M118.894,98.313a3.516,3.516,0,0,0-.677-.106c-1.525-.119-3.05-.25-4.578-.33A.623.623,0,0,1,113,97.4c-.608-1.558-1.232-3.11-1.853-4.662A1.177,1.177,0,0,0,110,91.925a1.254,1.254,0,0,0-1.2.758c-.064.127-.112.263-.166.4-.593,1.441-1.188,2.882-1.776,4.325-.086.212-.168.358-.444.374-1.742.1-3.483.224-5.225.338a1.237,1.237,0,0,0-1.154,1.169,1.623,1.623,0,0,0,.789,1.39c1.186.995,2.365,2,3.551,2.991a.469.469,0,0,1,.172.555c-.438,1.67-.854,3.346-1.275,5.021a1.23,1.23,0,0,0,.891,1.532,1.563,1.563,0,0,0,1.223-.266c1.335-.836,2.683-1.652,4.011-2.5a.631.631,0,0,1,.8-.007c1.382.9,2.781,1.765,4.176,2.641a1.283,1.283,0,0,0,2-1.424c-.38-1.538-.741-3.081-1.143-4.613a.786.786,0,0,1,.307-.947c1.263-1.013,2.5-2.06,3.748-3.091a1.131,1.131,0,0,0,.508-.962A1.253,1.253,0,0,0,118.894,98.313Z" transform="translate(-22.843 -28.432)" fill="#fca311"/>
  <path id="Path_32" data-name="Path 32" d="M29.046,46.263H36.82A1.441,1.441,0,0,1,38.261,47.7V72.227a1.441,1.441,0,0,1-1.441,1.441H29.046a1.441,1.441,0,0,1-1.441-1.441V47.7a1.441,1.441,0,0,1,1.441-1.441Z" transform="translate(-8.14 -19.162)" fill="#14213d"/>
  <path id="Path_33" data-name="Path 33" d="M83.99,31.321H69.569l.035-.116.6-1.937.586-1.883,1.753-5.638L73.4,19a4.256,4.256,0,0,0,.113-.432V18.56a4.964,4.964,0,0,0,.122-1.1,5.056,5.056,0,0,0-.081-.905,5.193,5.193,0,0,0-9.7-1.534L49.824,37.059a13.969,13.969,0,0,1-4.749,4.728l-.008,0a1.907,1.907,0,0,0-.973,1.653V64.858a1.885,1.885,0,0,0,1.3,1.8q.064.021.131.037c.13.032,6.678,1.242,6.678,1.242l3.977.452a37.117,37.117,0,0,0,4.19.237H77.782A5.632,5.632,0,0,0,83.3,64.132l5.669-27.354A5.437,5.437,0,0,0,83.99,31.321Z" transform="translate(-11.487 -12.26)" fill="#14213d"/>
</svg>
