<svg xmlns="http://www.w3.org/2000/svg" width="22.793" height="22.793" viewBox="0 0 22.793 22.793"><g transform="translate(0 0)"><path d="M15.3,12.086a5.257,5.257,0,1,1,1.39,1.394l-3.577,3.576,1.719,1.719-1.315,1.315-1.72-1.72L9.166,21l2.158,2.158L10.01,24.471,7.851,22.312,5.529,24.633a.957.957,0,0,1-1.361,0l-.016-.016a.97.97,0,0,1,0-1.367L15.3,12.086Zm-3.535,7.565-1.315,1.315h0l2.191,2.191L10.01,25.785,7.819,23.594,6.175,25.238a1.886,1.886,0,0,1-2.666.006l.031.031a1.886,1.886,0,0,1,.006-2.666L14.2,11.955a6.131,6.131,0,1,1,2.629,2.629h0l-2.438,2.438,1.753,1.753L13.515,21.4l-1.753-1.753ZM19.65,12.64a3.505,3.505,0,1,0-3.505-3.505A3.505,3.505,0,0,0,19.65,12.64Zm0-.876a2.629,2.629,0,1,0-2.629-2.629,2.629,2.629,0,0,0,2.629,2.629Z" transform="translate(-2.991 -3)" fill="#fca311" fill-rule="evenodd"/></g></svg>