<svg xmlns="http://www.w3.org/2000/svg" width="20.355" height="20.35" viewBox="0 0 20.355 20.35"><path d="M22.177,14.4a7.787,7.787,0,1,0,5.5,2.275A7.757,7.757,0,0,0,22.177,14.4Zm-.01,1.209A6.466,6.466,0,0,1,26.8,17.536a6.532,6.532,0,1,1-4.631-1.926Zm0,1.23a5.208,5.208,0,0,0-3.75,1.578,5.323,5.323,0,0,0-1.557,3.566.6.6,0,0,0,.594.635h.02a.627.627,0,0,0,.615-.594,4.158,4.158,0,0,1,1.188-2.746,4.064,4.064,0,0,1,2.89-1.209.615.615,0,1,0,0-1.23Zm-3.546,7.726a.615.615,0,1,0,.615.615A.615.615,0,0,0,18.622,24.565Zm9.911,3.381a.569.569,0,0,0-.423.185.594.594,0,0,0,0,.861l.512.512a1.762,1.762,0,0,0-.185.8,1.844,1.844,0,0,0,.533,1.312L31.594,34.2a1.848,1.848,0,0,0,1.311.553,1.916,1.916,0,0,0,1.312-.533,1.843,1.843,0,0,0,0-2.6l-2.623-2.623a1.844,1.844,0,0,0-1.312-.533,1.763,1.763,0,0,0-.8.185l-.512-.512A.619.619,0,0,0,28.533,27.946Zm1.75,1.722a.558.558,0,0,1,.43.185l2.6,2.6a.608.608,0,1,1-.861.861l-2.6-2.582a.635.635,0,0,1-.185-.451.558.558,0,0,1,.185-.43A.59.59,0,0,1,30.282,29.668Z" transform="translate(-14.4 -14.4)" fill="#fff"/></svg>