<svg xmlns="http://www.w3.org/2000/svg" width="62.91" height="67.809" viewBox="0 0 62.91 67.809">
  <g id="settings_icon_big" transform="translate(1.014 1)">
    <circle id="XMLID_224_" cx="10.125" cy="10.125" r="10.125" stroke-width="2" transform="translate(20.316 22.78)" stroke="#14213d" stroke-linecap="round" stroke-linejoin="round" stroke-miterlimit="10" fill="none"/>
    <path id="XMLID_242_" d="M64.175,21.644,61.644,17.26a5.061,5.061,0,0,0-6.915-1.853l-1.331.769A7.594,7.594,0,0,1,42.007,9.6V8.062A5.061,5.061,0,0,0,36.945,3H31.883A5.061,5.061,0,0,0,26.82,8.062V9.6a7.593,7.593,0,0,1-11.39,6.576L14.1,15.408A5.061,5.061,0,0,0,7.184,17.26L4.653,21.644a5.061,5.061,0,0,0,1.853,6.915l1.331.769a7.593,7.593,0,0,1,0,13.152l-1.331.769a5.061,5.061,0,0,0-1.853,6.915l2.531,4.384A5.061,5.061,0,0,0,14.1,56.4l1.331-.769a7.593,7.593,0,0,1,11.39,6.576v1.539a5.061,5.061,0,0,0,5.062,5.062h5.062a5.061,5.061,0,0,0,5.062-5.062V62.208A7.593,7.593,0,0,1,53.4,55.632l1.331.769a5.061,5.061,0,0,0,6.915-1.853l2.531-4.384a5.061,5.061,0,0,0-1.853-6.915l-1.331-.769a7.593,7.593,0,0,1,0-13.152l1.331-.769A5.059,5.059,0,0,0,64.175,21.644Z" transform="translate(-3.974 -3)" fill="none" stroke="#14213d" stroke-linecap="round" stroke-linejoin="round" stroke-miterlimit="10" stroke-width="2"/>
  </g>
</svg>
